<svg xmlns="http://www.w3.org/2000/svg" viewBox="0 0 1000 1000" enable-background="new 0 0 1000 1000"><path fill="#010101" d="M500 1.1c-274.8 0-498.3 223.5-498.3 498.3s223.2 498.5 498.3 498.5 498.3-223.5 498.3-498.3-223.5-498.5-498.3-498.5zm0 953.3c-250.7 0-454.7-204.1-454.7-454.7s204-454.8 454.7-454.8 454.7 204.1 454.7 454.7-204 454.8-454.7 454.8zm-.1-770.3l-245.5 140.5 31.1 374.3 214.5 113.3 205.8-114.8 39.7-372.7-245.6-140.6zm-1.5 185.4l34.3 96 101.9-.5-80.7 62.3 22.9 69.2 9.1 27.5-84.2-57.5-82.2 60.3 28.7-97.8-82.7-59.5 101.9-2.9 31-97.1z"/></svg>