<svg xmlns="http://www.w3.org/2000/svg" viewBox="0 0 1000 1000" enable-background="new 0 0 1000 1000"><g fill="#010101"><path d="M899.9 795.3c-7.8-94.4-89.8-167.9-184.8-164.9l-85.7-103.1 197.6-241.4 45.7-55c1.6-2 3-4.1 4.1-6.4 34-70.1 19-153.6-37.1-207.6-6.3-6.1-14.8-9.2-23.5-8.7s-16.8 4.6-22.4 11.3l-189.3 227.8-97.2 120.5-5.2 6.3-9.2-11.1-97.7-121.2-189-227.4c-5.6-6.7-13.7-10.8-22.4-11.3-8.6-.4-17.2 2.7-23.5 8.7-56.2 54-71.1 137.4-37.1 207.6 1.1 2.3 2.5 4.4 4.1 6.4l245.7 299.2 1.9 2.2-87 104.7-2.9 3.6c-95.7-3.4-177 70.5-184.8 164.9-4 47.9 11 94.4 42 131 31.1 36.6 74.5 59 122.4 62.9 5 .4 10.1.6 15 .6 92.7 0 171.3-72.4 179-164.9 2.3-28.2-2-56.2-12.5-82.2l56.1-67.5 51.8 62.4c-10.5 25.9-14.8 53.9-12.5 82.2 7.6 92.5 86.3 164.9 179 164.9 5 0 10-.2 15-.6 47.9-3.9 91.3-26.3 122.4-62.9 31.1-36.6 46-83.2 42-131zm-344-387.8l97.2-120.5 164.2-197.6c17.7 31.6 19.9 70.2 4.6 104.5l-233.3 284.2-45.6-54.9 12.9-15.7zm-165.3 308.9l-5.4 6.3c-8.5 10-10 24.2-3.6 35.7 11.3 20.3 16.2 43.3 14.3 66.5-5.2 63.4-61.3 112.3-126.3 106.9-31.2-2.6-59.5-17.1-79.7-41-20.2-23.8-29.9-54.1-27.3-85.3 5-60.2 56.1-107.4 116.5-107.4 3.2 0 6.5.1 10 .4l1.6.3 4.5.6c10.7 1.3 21-3.1 27.7-11.3l92.7-111.7 45.6 54.9-70.6 85.1zm419.4 169.3c-20.2 23.8-48.5 38.4-79.7 40.9-3.3.3-6.6.4-9.8.4-60.3 0-111.5-47.2-116.5-107.3-1.9-23.2 3.1-46.2 14.3-66.5 6.4-11.5 5-25.7-3.5-35.7l-71.8-86.3-20.4-24.5-20.4-24.5-45.7-54.9-20.5-24.7-14.7-17.6-5.7-7-194.4-237.4-43.1-51.9c-15.3-34.2-13.1-72.8 4.6-104.4l164 197.2 97.7 121.2 17 20.4 20.4 24.5 20.4 24.6 45.7 55 20.4 24.5 20.4 24.6 74.9 90.1 13.4 16.6c6.8 8.3 17.2 12.5 27.9 11.3l4.1-.6 2-.3c64.5-5.3 121.1 43.5 126.3 107 2.6 31.2-7.1 61.5-27.3 85.3zM277.2 728.1c-48.1 0-87.2 39.1-87.2 87.2 0 48 39.1 87.2 87.2 87.2s87.2-39.1 87.2-87.2-39.1-87.2-87.2-87.2zm0 118.6c-17.3 0-31.4-14.1-31.4-31.4 0-17.3 14.1-31.4 31.4-31.4 17.3 0 31.4 14.1 31.4 31.4 0 17.3-14 31.4-31.4 31.4zM721 722.7c-48.1 0-87.2 39.1-87.2 87.2 0 48 39.1 87.2 87.2 87.2s87.2-39.1 87.2-87.2c0-48-39.1-87.2-87.2-87.2zm0 118.6c-17.3 0-31.4-14.1-31.4-31.4 0-17.3 14.1-31.4 31.4-31.4 17.3 0 31.4 14.1 31.4 31.4 0 17.4-14.1 31.4-31.4 31.4z"/><circle cx="501.3" cy="526.1" r="26.1"/></g></svg>