<svg xmlns="http://www.w3.org/2000/svg" viewBox="0 0 1024 1024" enable-background="new 0 0 1024 1024"><path d="M512.1 937.5l-511.2-511.2 282.4-348.9h457.7l282.4 348.9-511.3 511.2zm231.4-496.5l-193 413.4 413.5-413.4h-220.5zm-683.2 0l413.4 413.4-192.9-413.4h-220.5zm467.6 0v387.1l180.7-387.1h-180.7zm-212.3 0l180.7 387.1v-387.1h-180.7zm429.7-31.6h223.7l-243.1-300.3h-66.3l85.7 300.3zm-217.4 0h184.5l-85.8-300.3h-98.7v300.3zm-216.1 0h184.5v-300.3h-98.7l-85.8 300.3zm-256.6 0h223.7l85.8-300.3h-66.3l-243.2 300.3z"/></svg>