<svg xmlns="http://www.w3.org/2000/svg" viewBox="0 181 612 611" enable-background="new 0 181 612 611"><path d="M306 184.4c-166.5 0-302 135.5-302 302s135.3 302.2 302 302.2 302-135.5 302-302-135.5-302.2-302-302.2zm0 577.8c-151.9 0-275.6-123.7-275.6-275.6s123.7-275.6 275.6-275.6 275.6 123.7 275.6 275.6-123.7 275.6-275.6 275.6zM305.9 295.338l-148.8 85.1 18.8 226.8 130.1 68.7 124.8-69.6 24.1-225.9-149-85.1zm-.9 112.4l20.8 58.2 61.8-.3-48.9 37.7 13.9 42 5.5 16.7-51-34.9-49.8 36.6 17.4-59.3-50.2-36.1 61.7-1.8 18.8-58.8z"/></svg>