<?xml version="1.0" encoding="utf-8"?>
<!-- Generator: Adobe Illustrator 18.0.0, SVG Export Plug-In . SVG Version: 6.00 Build 0)  -->
<!DOCTYPE svg PUBLIC "-//W3C//DTD SVG 1.1//EN" "http://www.w3.org/Graphics/SVG/1.1/DTD/svg11.dtd">
<svg version="1.1" id="Layer_1" xmlns="http://www.w3.org/2000/svg" xmlns:xlink="http://www.w3.org/1999/xlink" x="0px" y="0px"
	 viewBox="0 181 612 611" enable-background="new 0 181 612 611" xml:space="preserve">
<path d="M306,184.4c-166.5,0-302,135.5-302,302s135.3,302.2,302,302.2s302-135.5,302-302S472.5,184.4,306,184.4L306,184.4z
	 M306,762.2c-151.9,0-275.6-123.7-275.6-275.6S154.1,211,306,211s275.6,123.7,275.6,275.6S457.9,762.2,306,762.2z"/>
<path d="M486.6,399.6c-0.2-0.9-0.4-1.7-0.9-2.5l-0.2-0.4l-0.9-1.9l-0.2-0.4l-1.1-1.7l-0.4-0.4l-1.2-1.5l-0.4-0.4
	c-0.4-0.4-0.9-0.9-1.5-1.2l-0.4-0.4l-1.5-1.1L317,293.3c-6.3-3.8-14.1-3.8-20.4,0l-160.9,94.6c-0.6,0.4-1.2,0.9-1.7,1.2l-0.2,0.2
	c-0.6,0.4-1.2,1.1-1.7,1.5l-0.2,0.2l-1.7,1.9c-0.4,0.6-1.1,1.2-1.2,2.1c-0.4,0.6-0.9,1.5-1.1,2.1c-0.4,0.9-0.6,1.5-0.9,2.5
	c-0.4,1.7-0.6,3.6-0.6,5.3V586c0,7.2,3.8,13.8,9.9,17.4L297,698h0.2c0.4,0.2,1.1,0.6,1.7,0.9l0.6,0.2l1.9,0.6l0.6,0.2l1.9,0.4
	c0.2,0,0.4,0,0.6,0.2c0.9,0.2,1.7,0.2,2.7,0.2c0.9,0,1.7,0,2.7-0.2l0.9-0.2c0.6,0,1.1-0.2,1.7-0.4c0.4,0,0.6-0.2,1.1-0.4
	c0.4-0.2,0.9-0.2,1.5-0.4l1.5-0.6l0.6-0.4h0.2l160.9-94.6c6.1-3.6,9.9-10.3,9.9-17.4V404.7C487.2,403.1,486.9,401.1,486.6,399.6z
	 M286,645l-120.6-70.7V440.2L286,510.9V645z M306.1,475.8l-120.9-71.1l120.9-71L427,404.6L306.1,475.8z M446.5,574.6L326,645.3
	V511.1l120.6-70.7V574.6z"/>
</svg>
