<?xml version="1.0" encoding="utf-8"?>
<!-- Generator: Adobe Illustrator 18.0.0, SVG Export Plug-In . SVG Version: 6.00 Build 0)  -->
<!DOCTYPE svg PUBLIC "-//W3C//DTD SVG 1.1//EN" "http://www.w3.org/Graphics/SVG/1.1/DTD/svg11.dtd">
<svg version="1.1" id="Layer_1" xmlns="http://www.w3.org/2000/svg" xmlns:xlink="http://www.w3.org/1999/xlink" x="0px" y="0px"
	 viewBox="0 181 612 611" enable-background="new 0 181 612 611" xml:space="preserve">
<g>
	<path d="M306,184.4L306,184.4c-166.5,0-302,135.5-302,302s135.3,302.2,302,302.2s302-135.5,302-302S472.5,184.4,306,184.4z
		 M306,762.2c-151.9,0-275.6-123.7-275.6-275.6S154.1,211,306,211s275.6,123.7,275.6,275.6S457.9,762.2,306,762.2z"/>
	<path d="M463.7,429v-15.9c0-11.3-6-26.8-21.3-33.5c0.2-6.3-1.2-13.6-5.3-21.6c-16.5-32.4-63.3-45.6-91.3-53.5
		c-15.2-4.3-30.7-7.4-46.3-10.5l-19.4-3.4c-6.1-1.1-12.2,2-14.8,7.6c-2.7,5.6-1.3,12.3,3.4,16.4c0,0,1.6,1.9,1.2,4
		c-0.3,1.3-3.5,13.3-43.4,28c-17.4,6.4-39.1,16-49,30.6c-22.6,4.2-31,24.2-31,38.2V429c0,6,0.9,11.9,2.7,17.7
		c-5.1,8-5.5,17.4-4.5,23.5v112.4c0,52.4,70.8,93.4,161.3,93.4c84.6,0,161.7-36.9,161.7-77.4V456.3c1-5.2,0.5-12.8-4.3-19.6
		C463.5,434.2,463.7,431.6,463.7,429z M236,372.4c37.5-13.8,57.5-29.8,61-48.9c0.1-0.6,0.2-1.2,0.3-1.8c13.7,2.7,27.7,5.6,41,9.4
		c22.1,6.2,63.1,17.8,74.2,39.4c3.3,6.4,2.5,10,1,12.6c-0.1,0.2-0.2,0.4-0.3,0.6c0,0,0,0,0,0c-14,22.9-93.7,32.2-124.5,32.2
		c-7.6,0-13.8,6.2-13.8,13.8c0,7.6,6.2,13.8,13.8,13.8c1.1,0,108.2-1.1,142.8-38.4c2.4,1.1,4.4,3.4,4.6,8.1v15.9
		c0,15.9-12.9,32.2-35.3,44.6c-25.4,14.1-59.4,21.8-95.8,21.8c-71,0-131-30.4-131-66.4v-13.7c0-2,0.4-4.8,2-7
		c7,12.1,21.1,18.7,23.2,19.7c6.9,3.1,15,0,18.2-7c3.1-6.9,0-15.1-6.9-18.2c-5.3-2.4-10.5-7-10.8-8.7c0,0,0,0,0-0.1
		C199.9,393.1,203.2,384.5,236,372.4z M305.8,648.4c-71.2,0-133.7-30.7-133.7-65.8V481.1c28.1,25.5,76.6,42,132.8,42
		c41,0,79.8-9,109.2-25.2c10-5.6,18.6-11.8,25.7-18.5v119.4C439.9,613,386.5,648.4,305.8,648.4z"/>
</g>
</svg>
