<?xml version="1.0" encoding="utf-8"?>
<!-- Generator: Adobe Illustrator 18.0.0, SVG Export Plug-In . SVG Version: 6.00 Build 0)  -->
<!DOCTYPE svg PUBLIC "-//W3C//DTD SVG 1.1//EN" "http://www.w3.org/Graphics/SVG/1.1/DTD/svg11.dtd">
<svg version="1.1" id="Layer_1" xmlns="http://www.w3.org/2000/svg" xmlns:xlink="http://www.w3.org/1999/xlink" x="0px" y="0px"
	 viewBox="0 0 1000 1000" enable-background="new 0 0 1000 1000" xml:space="preserve">
<path fill="#010101" d="M500,1.1L500,1.1C225.2,1.1,1.7,224.6,1.7,499.4S224.9,997.9,500,997.9s498.3-223.5,498.3-498.3
	S774.8,1.1,500,1.1z M500,954.4c-250.7,0-454.7-204.1-454.7-454.7S249.3,44.9,500,44.9S954.7,249,954.7,499.6S750.7,954.4,500,954.4
	z M309.3,691.8h-71.5c-13.2,0-23.8,10.7-23.8,23.8c0,13.2,10.7,23.8,23.8,23.8h47.7v47.7c0,13.2,10.7,23.8,23.8,23.8
	s23.8-10.7,23.8-23.8v-71.5C333.2,702.5,322.5,691.8,309.3,691.8z M784.2,253.7c-2.4-5.8-7.1-10.5-12.9-12.9c-2.9-1.2-6-1.8-9.1-1.8
	h-95.3c-13.2,0-23.8,10.7-23.8,23.8c0,13.2,10.7,23.8,23.8,23.8h37.8L500,491.3L295.4,286.7h37.8c13.2,0,23.8-10.7,23.8-23.8
	c0-13.2-10.7-23.8-23.8-23.8h-95.3c-3.1,0-6.2,0.6-9.1,1.8c-5.8,2.4-10.5,7.1-12.9,12.9c-1.2,2.9-1.8,6-1.8,9.1v95.3
	c0,13.2,10.7,23.8,23.8,23.8c13.2,0,23.8-10.7,23.8-23.8v-37.8L466.3,525L371,620.3h-61.6c-13.2,0-23.8,10.7-23.8,23.8
	c0,13.2,10.7,23.8,23.8,23.8H357v47.7c0,13.2,10.7,23.8,23.8,23.8s23.8-10.7,23.8-23.8V654l95.3-95.3l95.3,95.3v61.6
	c0,13.2,10.7,23.8,23.8,23.8c13.2,0,23.8-10.7,23.8-23.8V668h47.7c13.2,0,23.8-10.7,23.8-23.8c0-13.2-10.7-23.8-23.8-23.8H629
	L533.7,525l204.6-204.6v37.8c0,13.2,10.7,23.8,23.8,23.8c13.2,0,23.8-10.7,23.8-23.8v-95.3C786,259.7,785.4,256.6,784.2,253.7z
	 M762.2,691.8h-71.5c-13.2,0-23.8,10.7-23.8,23.8v71.5c0,13.2,10.7,23.8,23.8,23.8c13.2,0,23.8-10.7,23.8-23.8v-47.7h47.7
	c13.2,0,23.8-10.7,23.8-23.8C786,702.5,775.3,691.8,762.2,691.8z"/>
</svg>
