<svg xmlns="http://www.w3.org/2000/svg" viewBox="0 0 1000 1000" enable-background="new 0 0 1000 1000"><path fill="#010101" d="M910 54.5h-91.1c-16.1 0-29.3 13.1-29.3 29.3v25l-367.1 119.1v-19.1c0-16.1-13.1-29.3-29.3-29.3h-182.2c-16.1 0-29.3 13.1-29.3 29.3v182.2c0 16.1 13.1 29.3 29.3 29.3h19.1l-115.2 363.1h-24.9c-16.1 0-29.3 13.1-29.3 29.3v91.1c0 16.1 13.1 29.3 29.3 29.3h91.1c16.1 0 29.3-13.1 29.3-29.3v-91.1c0-16.1-13.1-29.3-29.3-29.3h-3.9l115.2-363.1h100.9c16.1 0 29.3-13.1 29.3-29.3v-100.9l367-119.1v3.9c0 16.1 13.1 29.3 29.3 29.3h91.1c16.1 0 29.3-13.1 29.3-29.3v-91.1c0-16.2-13.1-29.3-29.3-29.3zm-22.8 52.1v45.6h-45.6v-45.6h45.6zm-774.4 774.4v-45.6h45.6v45.6h-45.6zm121-512.8v-136.7h136.7v136.7h-136.7zm702.2 266.8c-2.6-7.9-8.6-14.3-16.2-17.6l-451-193.3c-3.6-1.5-7.5-2.3-11.4-2.4h-.1c-16.1 0-29.2 13.1-29.3 29.1 0 4 .8 8 2.4 11.7l193.3 451c4.6 10.8 15.2 17.7 26.9 17.7 4 0 7.9-.8 11.5-2.4 7.7-3.3 13.6-9.7 16.2-17.7l59.8-179.4 179.4-59.8c15.3-5 23.6-21.6 18.5-36.9zm-288.2 203l-147.2-343.6 343.6 147.3-136.4 45.5c-6.8 2.3-12.1 7.6-14.4 14.4l-45.6 136.4z"/></svg>