<svg xmlns="http://www.w3.org/2000/svg" viewBox="0 0 1000 1000" enable-background="new 0 0 1000 1000"><path fill="#010101" d="M852.5 151.4c-93.6-94.3-218.9-146.9-352.6-148-271.1 0-493.6 221-495.8 492.6-1.1 133.2 49.8 258 143.2 351.5 92 94.2 216 146.6 349.4 147.7h3.3c271.2 0 493.7-221 495.9-492.6 1-132.2-49.9-257-143.4-351.2zm-104.2 11.6c22.6 2.3 42.9 12.4 57.6 29.3 14.7 16.9 21.4 38.4 20.3 60.9-3.4 44-39.5 77.9-83.5 77.9h-6.8c-46.3-3.4-81.3-44-77.9-90.3 3.4-44 39.5-77.9 83.5-77.9 3.4.1 5.7.1 6.8.1zm-487.6 680.5c-28.2 0-50.8-22.6-50.8-50.8 0-28.2 22.6-50.8 50.8-50.8s50.8 22.6 50.8 50.8c0 28.3-22.5 50.8-50.8 50.8zm224.6-36.1c0 10.2-9 19.2-19.2 19.2-9 0-16.9 6.8-19.2 14.7-4.5 16.9-11.3 33.9-20.3 48.5-4.5 7.9-3.4 18.1 3.4 24.8 5.6 5.6 6.8 12.4 5.6 19.2-41.8-6.8-83.5-19.2-120.8-36.1 38.4-19.2 64.3-58.7 64.3-103.8 0-64.3-51.9-116.2-116.2-116.2-54.2 0-99.3 36.1-112.9 85.8-26-33.9-46.3-72.2-60.9-111.7 1.1-2.3 2.3-5.6 4.5-6.8 5.6-6.8 12.4-13.5 20.3-20.3 3.4-3.4 9-4.5 13.5-4.5 5.6 0 10.2 2.3 14.7 5.6 3.4 3.4 9 5.6 13.5 5.6 3.4 0 6.8-1.1 10.2-3.4 14.7-9 31.6-15.8 48.5-20.3 9-2.3 14.7-10.2 14.7-19.2v-1.1c0-10.2 7.9-19.2 19.2-20.3h27c10.2 1.1 19.2 9 19.2 20.3v1.1c0 9 6.8 16.9 14.7 19.2 16.9 4.5 33.9 11.3 48.5 20.3 3.4 2.3 6.8 3.4 10.2 3.4 5.6 0 10.2-2.3 13.5-5.6 3.4-3.4 9-5.6 14.7-5.6 4.5 0 9 1.1 13.5 4.5 6.8 6.8 13.5 12.4 20.3 20.3 6.8 7.9 6.8 20.3-1.1 27.1-6.8 6.8-7.9 16.9-3.4 24.8 9 14.7 15.8 31.6 20.3 48.5 2.3 9 10.2 14.7 19.2 14.7 10.2 0 19.2 7.9 20.3 19.2v13.5c1.4 5.6 1.4 10.1.2 14.6zm14.7 130.9h-5.699999999999999c1.1-13.5 0-27.1-4.5-39.5 3.4-5.6 5.6-12.4 7.9-19.2 27.1-11.3 47.4-38.4 48.5-68.8 0-5.6 1.1-12.4 1.1-18.1v-16.9c-2.3-31.6-21.4-57.6-48.5-70-2.3-6.8-4.5-12.4-7.9-18.1 11.3-27.1 6.8-59.8-14.7-83.5-7.9-9-15.8-16.9-24.8-24.8-14.7-13.5-33.9-20.3-54.2-20.3-10.2 0-21.4 2.3-30.5 5.6-5.6-2.3-12.4-5.6-18.1-7.9-11.3-27.1-38.4-47.4-70-49.7h-36.2c-31.6 2.3-57.6 21.4-70 49.7-5.6 2.3-12.4 4.5-18.1 7.9-9-3.4-20.3-5.6-30.5-5.6-20.3 0-38.4 6.8-54.2 20.3-1.1 1.1-2.3 2.3-3.4 2.3-5.6-27.1-7.9-56.4-7.9-84.6 3.4-189.6 124.1-349.9 294.6-410.8-2.3 4.5-3.4 9-5.6 14.7-3.4 9-5.6 16.9-9 26-12.4 39.5 4.5 81.3 37.2 103.8-1.1 21.4 0 42.9 2.3 63.2-30.5 24.8-44 67.7-29.3 106.1 6.8 16.9 13.5 32.7 22.6 48.5 15.8 30.5 47.4 48.5 81.3 48.5 5.6 0 11.3 0 16.9-1.1 14.7 15.8 29.3 30.5 46.3 42.9-4.5 39.5 16.9 77.9 54.2 94.8 7.9 3.4 15.8 6.8 24.8 10.2l24.8 9c9 2.3 18.1 4.5 27.1 4.5 30.5 0 59.8-15.8 76.7-40.6h18.1c14.7 0 30.5-1.1 45.1-2.3 16.9 21.4 44 35 72.2 35 11.3 0 22.6-2.3 32.7-5.6 9-3.4 18.1-6.8 27.1-11.3-55 175.9-222 305.7-418.4 305.7zm426.6-414.2c6.8 15.8 1.1 33.9-13.5 41.8-13.5 6.8-27.1 13.5-41.8 19.2-3.4 1.1-7.9 2.3-11.3 2.3-12.4 0-23.7-6.8-29.3-19.2-5.6-11.3-16.9-18.1-29.3-18.1h-5.6c-18.1 3.4-36.1 4.5-54.2 4.5-10.2 0-21.4 0-31.6-1.1h-3.4c-13.5 0-24.8 7.9-29.3 20.3s-16.9 20.3-29.3 20.3c-3.4 0-5.6 0-9-1.1-6.8-2.3-14.7-4.5-21.4-6.8s-14.7-5.6-21.4-9c-15.8-6.8-22.6-24.8-16.9-40.6 5.6-13.5 0-29.3-11.3-37.2-23.7-16.9-45.1-36.1-63.2-58.7-6.8-7.9-15.8-12.4-24.8-12.4-4.5 0-9 1.1-13.5 3.4s-9 3.4-13.5 3.4c-11.3 0-22.6-5.6-28.2-16.9-6.8-13.5-13.5-27.1-19.2-41.8-5.6-15.8 1.1-32.7 16.9-40.6 13.5-5.6 20.3-20.3 18.1-35-4.5-28.2-5.6-56.4-3.4-85.8 1.1-14.7-6.8-28.2-20.3-32.7h-1.1c-15.8-5.6-24.8-22.6-19.2-39.5 2.3-7.9 4.5-14.7 7.9-22.6l7.9-20.3c5.6-12.4 16.9-19.2 29.3-19.2 3.4 0 7.9 1.1 11.3 2.3h1.1c3.4 1.1 7.9 2.3 11.3 2.3 10.2 0 20.3-4.5 26-13.5 3.4-4.5 5.6-9 9-12.4h2.3c68.8 0 134.3 16.9 191.9 46.3-55.3 19.2-97.1 68.8-101.6 129.8-6.8 82.4 55.3 154.6 137.7 160.3h11.3c66.6 0 125.3-45.1 143.3-107.2 31.6 57.6 50.8 124.1 53 194.1l-3.4 3.4c-10.6 8.7-13.9 24.5-8.3 38z"/></svg>