<svg xmlns="http://www.w3.org/2000/svg" viewBox="0 0 1000 1000" enable-background="new 0 0 1000 1000"><path fill="#010101" d="M500 1.1c-274.8 0-498.3 223.5-498.3 498.3s223.2 498.5 498.3 498.5 498.3-223.5 498.3-498.3-223.5-498.5-498.3-498.5zm0 953.3c-250.7 0-454.7-204.1-454.7-454.7s204-454.8 454.7-454.8 454.7 204.1 454.7 454.7-204 454.8-454.7 454.8zm243.3-585.2c-.3-1.2-.5-2.3-1.2-3.4l-.3-.5-1.2-2.5-.3-.5-1.5-2.3-.5-.5-1.7-2-.5-.5c-.5-.5-1.2-1.2-2-1.7l-.5-.5-2-1.5-218.4-128.4c-8.5-5.2-19.1-5.2-27.7 0l-218.3 128.4c-.8.5-1.7 1.2-2.3 1.7l-.3.3c-.8.5-1.7 1.5-2.3 2l-.3.3-2.3 2.5c-.5.8-1.5 1.7-1.7 2.8-.5.8-1.2 2-1.5 2.8-.5 1.2-.8 2-1.2 3.4-.5 2.3-.8 4.9-.8 7.2v245.7c0 9.7 5.2 18.8 13.4 23.6l218.4 128.4h.3c.5.3 1.5.8 2.3 1.2l.8.3 2.5.8.8.3 2.5.5c.3 0 .5 0 .8.3 1.2.3 2.3.3 3.7.3 1.2 0 2.3 0 3.7-.3l1.2-.3c.8 0 1.5-.3 2.3-.5.5 0 .8-.3 1.5-.5.5-.3 1.2-.3 2-.5l2-.8.8-.5h.3l218.4-128.4c8.2-4.9 13.4-13.9 13.4-23.6v-246.2c-1.4-2.2-1.8-4.9-2.3-6.9zm-272.1 333l-163.6-95.9v-182l163.6 95.9v182zm27.3-229.6l-164.1-96.5 164.1-96.4 164.1 96.2-164.1 96.7zm190.5 134.1l-163.6 95.9v-182l163.6-95.9v182z"/></svg>