<svg xmlns="http://www.w3.org/2000/svg" viewBox="0 0 1000 1000" enable-background="new 0 0 1000 1000"><path fill="#010101" d="M768.3 737.6c-97.4 0-153.1-46.4-190.2-75.8-12.4-10.8-24.7-21.6-35.6-30.9-17-13.9-37.1-32.5-43.3-34h-7.699999999999999c-4.6 1.5-21.6 17-35.6 29.4-12.4 10.8-27.8 23.2-43.3 35.6l-3.1 1.5c-41.7 32.5-94.3 74.2-187.1 74.2-68 0-136.1-30.9-176.3-80.4-26.1-34-55.5-91.2-37-179.4 1.5-10.8 9.3-18.6 20.1-23.2 10.8-3.1 21.6-1.5 29.4 4.6 0 0 21.6 17 57.2 17 17 0 35.6-4.6 55.7-12.4 32.5-13.9 54.1-54.1 78.9-81.9 32.5-37.1 71.1-78.9 131.4-78.9 43.3 0 80.4 15.5 116 46.4 34-30.9 72.7-46.4 114.4-46.4 63.4 0 100.5 41.7 134.5 78.9 24.7 26.3 47.9 66.5 80.4 80.4 18.6 7.7 37.1 12.4 55.7 12.4 37.1 0 58.8-17 60.3-17 7.7-6.2 20.1-7.7 29.4-4.6s17 12.4 18.6 23.2c17 86.6-12.4 143.8-40.2 177.8-45 51-113 83.5-182.6 83.5zm-272.1-204.1h12.299999999999999c21.6 3.1 43.3 21.6 74.2 49.5 10.8 9.3 21.6 18.6 34 29.4 34 27.8 75.8 61.8 151.5 61.8 51 0 102-23.2 131.4-60.3 20.1-24.7 29.4-52.6 30.9-85-13.9 4.6-32.5 7.7-52.6 7.7-26.3 0-54.1-6.2-80.4-17-43.3-20.1-74.2-66.5-100.5-95.9-34-37.1-55.7-58.8-89.7-58.8-44.8 0-72.7 27.8-91.2 49.5-6.2 6.2-13.9 10.8-23.2 10.8-9.3 0-17-4.6-23.2-10.8-18.6-21.6-46.4-49.5-91.2-49.5-34 0-55.7 23.2-88.1 58.8-26.3 29.4-55.7 77.3-100.5 95.9-26.3 12.4-52.6 17-78.9 17-20.1 0-37.1-3.1-51-7.7 0 34 9.3 63.4 29.4 86.6 29.4 35.6 78.9 58.8 128.3 58.8 71.1 0 111.3-30.9 150-60.3l3.1-3.1c15.5-12.4 29.4-23.2 41.7-34 27.8-23.2 46.4-38.7 64.9-43.3 1.8 1.5 11.1-.1 18.8-.1z"/></svg>