<svg xmlns="http://www.w3.org/2000/svg" viewBox="0 0 1000 1000" enable-background="new 0 0 1000 1000"><path fill="#010101" d="M500 1.1c-274.8 0-498.3 223.5-498.3 498.3s223.2 498.5 498.3 498.5 498.3-223.5 498.3-498.3-223.5-498.5-498.3-498.5zm0 953.3c-250.7 0-454.7-204.1-454.7-454.7s204-454.8 454.7-454.8 454.7 204.1 454.7 454.7-204 454.8-454.7 454.8zm247.7-555.8v-25c0-17.7-9.4-42.1-33.5-52.6.3-9.9-1.9-21.3-8.3-34-25.9-50.9-99.5-71.6-143.4-84-23.9-6.7-48.3-11.6-72.8-16.5l-30.5-5.4c-9.5-1.7-19.1 3.2-23.3 12-4.2 8.8-2 19.3 5.3 25.7 0 0 2.5 2.9 1.9 6.2-.4 2.1-5.6 20.9-68.2 44-27.3 10.1-61.4 25.1-77 48.1-35.5 6.6-48.8 38-48.8 59.9v21.6c0 9.5 1.5 18.8 4.2 27.7-8.1 12.6-8.7 27.4-7.1 37v176.7c0 82.3 111.3 146.7 253.4 146.7 132.9 0 253.9-57.9 253.9-121.5v-223.7c1.5-8.2.8-20.1-6.8-30.7.7-4 1-8.1 1-12.2zm-357.7-88.9c59-21.7 90.3-46.8 95.9-76.8l.5-2.9c21.5 4.3 43.5 8.8 64.5 14.7 34.7 9.8 99.2 27.9 116.5 61.9 5 9.8 4 15.4 1.8 19.5l-.7 1.2c-22.1 35.9-147.2 50.5-195.6 50.5-12 0-21.7 9.7-21.7 21.7s9.7 21.7 21.7 21.7c1.8 0 170-1.8 224.4-60.4 3.7 1.8 6.9 5.3 7.2 12.7v25c0 25-20.2 50.6-55.4 70.1-40.1 22.2-93.5 34.4-150.7 34.4-111.6 0-205.8-47.8-205.8-104.3v-21.6c0-3.2.6-7.5 3.1-11 11 19.1 33.2 29.4 36.5 30.9 10.9 4.9 23.6-.1 28.5-11 4.9-10.9 0-23.7-10.9-28.7-8.3-3.8-16.4-10.9-16.9-13.7l.1-.3c.8-2.2 7.7-15.4 57-33.6zm109.7 433.6c-111.9 0-210-48.3-210-103.3v-159.6c44.1 40 120.3 65.9 208.7 65.9 64.4 0 125.3-14.1 171.5-39.6 15.7-8.7 29.3-18.5 40.4-29.1v187.5c0 22.6-83.9 78.2-210.6 78.2z"/></svg>