<svg xmlns="http://www.w3.org/2000/svg" viewBox="0 0 1000 1000" enable-background="new 0 0 1000 1000"><path fill="#010101" d="M325.8 544.7c-10.8 0-20.9-4.2-28.5-11.8s-11.8-17.7-11.8-28.5 4.2-20.9 11.8-28.5c15.2-15.2 41.7-15.2 57 0 15.7 15.7 15.7 41.3 0 57-7.6 7.6-17.7 11.8-28.5 11.8zm.1-47.7c-1.2 0-3.4.3-5.3 2.2-1.9 1.9-2.2 4.1-2.2 5.3 0 1.2.3 3.4 2.2 5.3 3.8 3.8 6.8 3.8 10.6 0 2.9-2.9 2.9-7.7 0-10.6-2-2-4.2-2.2-5.3-2.2zM681 899.9c-10.8 0-20.9-4.2-28.5-11.8-7.6-7.6-11.8-17.7-11.8-28.5s4.2-20.9 11.8-28.5c15.2-15.2 41.8-15.2 57 0 15.7 15.7 15.7 41.2 0 57-7.6 7.6-17.7 11.8-28.5 11.8zm0-47.8c-1.1 0-3.4.3-5.3 2.2-1.9 1.9-2.2 4.1-2.2 5.3 0 1.1.3 3.4 2.2 5.3 3.8 3.8 6.7 3.8 10.6 0 2.9-2.9 2.9-7.7 0-10.6-1.9-1.9-4.1-2.2-5.3-2.2zM579.1 774.1c-4.2 0-8.4-1.6-11.6-4.8l-151.3-151.3c-6.4-6.4-6.4-16.8 0-23.2s16.8-6.4 23.2 0l151.3 151.3c6.4 6.4 6.4 16.8 0 23.2-3.2 3.1-7.4 4.8-11.6 4.8zM444.9 458.1l66.8-66.8 43.9 43.9 321.1-321.2-108.7-108.7-388.3 388.3c-9.3-7.4-29.1-20.4-53.9-20.4-20.5 0-39.4 8.6-56.3 25.4l-49.5 49.4c-19.2 19.2-43.6 66.1-5.1 110.3l-91.6 91.7 64.9 64.9 91.4-91.3 346.1 346c1 1 25.8 25.4 59.7 25.4 20.5 0 39.4-8.6 56.3-25.4l49.4-49.4c20.1-20.1 45.9-70.2 0-116l-346.2-346.1zm110.7-69.4l-20.9-20.9 100.2-100.2h41.8l-121.1 121.1zm153.9-153.9h-41.8l31.1-31.1h41.8l-31.1 31.1zm120.8-120.8l-56.9 56.9h-41.8l77.8-77.8 20.9 20.9zm-44.1-44.1l-280.4 280.4c-.4.4-.6 1-.9 1.4l-83.2 83.2-18.5-18.5 364.8-364.7 18.2 18.2zm-598.1 598.6l-18.4-18.5 68.1-68.1 18.5 18.5-68.2 68.1zm579.7 228.4l-49.4 49.4c-10.6 10.7-21.4 15.8-33.1 15.8-20.1 0-36.4-15.7-36.5-15.8l-405.6-405.4c-32.7-32.8-5.7-63.8 0-69.6l49.4-49.4c10.7-10.6 21.5-15.8 33.1-15.8 20.1 0 36.4 15.7 36.5 15.8l405.5 405.5c32.8 32.7 5.8 63.7.1 69.5z"/></svg>